<svg width="57" height="56" viewBox="0 0 57 56" fill="none" xmlns="http://www.w3.org/2000/svg">
<circle cx="28.5" cy="28" r="26" fill="#EBF3FE"/>
<circle cx="25.3645" cy="33.9449" r="4.27083" fill="#0074E8" stroke="#190A28"/>
<circle cx="25.3647" cy="33.9451" r="1.94129" fill="white" stroke="#190A28"/>
<path d="M18.7016 32.3703L20.7435 26.7549C20.9538 26.1767 21.5033 25.7918 22.1186 25.7918H28.3182C29.2149 25.7918 29.9007 26.5911 29.7643 27.4774L29.5065 29.1535C29.3701 30.0398 30.0559 30.8391 30.9526 30.8391H35.1031C36.0659 30.8391 36.7663 29.9253 36.516 28.9956L34.5822 21.8131C34.4103 21.1745 34.6651 20.4974 35.2154 20.1305C35.971 19.6268 36.9961 19.8825 37.4267 20.6821L43.6161 32.1766C44.141 33.1514 43.4349 34.3334 42.3278 34.3334H20.0766C19.0612 34.3334 18.3546 33.3245 18.7016 32.3703Z" fill="white" stroke="#190A28"/>
<path d="M40.5066 21.1325C40.5066 21.7513 40.5066 22.3138 40.5066 22.7309C40.5066 23.135 40.1757 23.4675 39.7808 23.3821C38.5456 23.1149 37.4006 22.209 37.4006 21.1325C37.4006 20.0561 38.5456 19.1502 39.7808 18.883C40.1757 18.7975 40.5066 19.1301 40.5066 19.5341C40.5066 19.9513 40.5066 20.5137 40.5066 21.1325Z" fill="white" stroke="#190A28"/>
<circle cx="42.448" cy="33.9449" r="4.27083" fill="#0074E8" stroke="#190A28"/>
<circle cx="42.4479" cy="33.9451" r="1.94129" fill="white" stroke="#190A28"/>
<path d="M35.4706 18.3323L34.4416 18.7439C34.1081 18.8773 34.1081 19.3493 34.4416 19.4827L35.4706 19.8943C36.0231 20.1153 36.6241 19.7084 36.6241 19.1133C36.6241 18.5182 36.0231 18.1113 35.4706 18.3323Z" fill="white" stroke="#190A28"/>
<rect x="17.2113" y="17.2499" width="10.8712" height="9.31818" rx="1.46316" fill="#0074E8" stroke="#190A28"/>
<path d="M8.28125 23.462H14.4934" stroke="#190A28" stroke-linecap="round"/>
<path d="M11.7756 20.3561H14.1051" stroke="#190A28" stroke-linecap="round"/>
<path d="M10.6108 26.5681H15.2699" stroke="#190A28" stroke-linecap="round"/>
<path d="M40.5816 28.9082C38.7071 29.5341 37.4462 31.1571 37.1918 32.9903C37.1249 33.4729 37.6928 33.7051 38.0665 33.3925C38.907 32.6893 40.1998 31.7104 41.3267 31.2911C42.4221 30.8835 43.9899 30.7706 45.0632 30.7452C45.551 30.7336 45.8245 30.1834 45.4543 29.8655C44.1565 28.751 42.3223 28.327 40.5816 28.9082Z" fill="white" stroke="#190A28"/>
</svg>
