<svg width="57" height="56" viewBox="0 0 57 56" fill="none" xmlns="http://www.w3.org/2000/svg">
<circle cx="28.5" cy="28" r="26" fill="#EBF3FE"/>
<rect x="14.3141" y="30.9575" width="5.17506" height="11.2407" rx="0.481771" fill="white" stroke="#190A28" stroke-width="1.15625"/>
<rect x="22.0768" y="25.3372" width="5.17506" height="16.8611" rx="0.481771" fill="white" stroke="#190A28" stroke-width="1.15625"/>
<rect x="29.8395" y="21.5901" width="5.17506" height="20.608" rx="0.481771" fill="white" stroke="#190A28" stroke-width="1.15625"/>
<ellipse cx="38.1962" cy="40.3246" rx="4.62377" ry="4.68363" fill="#0074E8" stroke="#190A28" stroke-width="1.15625"/>
<path d="M39.7374 38.6948H38.7121C38.9594 38.7979 39.1258 38.9752 39.2112 39.2268H39.7374V39.6784H39.2652C39.2472 39.9382 39.1595 40.1547 39.0021 40.3279C38.8493 40.5011 38.6222 40.6372 38.3209 40.7362L39.5418 42.4065H38.5367L37.498 40.8661H36.6548V40.3527H37.471C37.7498 40.3527 37.9611 40.3011 38.105 40.198C38.2489 40.0949 38.3321 39.9217 38.3546 39.6784H36.6548V39.2268H38.3209C38.2759 39.0577 38.1792 38.9361 38.0308 38.8618C37.8825 38.7835 37.6801 38.7443 37.4238 38.7443H36.6548V38.2432H39.7374V38.6948Z" fill="white" stroke="white" stroke-width="0.0713735"/>
<path d="M30.4181 14.2046C30.3115 14.0643 30.3969 13.8579 30.5738 13.8282L34.9819 13.0894C35.1612 13.0594 35.3015 13.2328 35.2349 13.4022L33.5407 17.7124C33.4727 17.8853 33.2422 17.9211 33.1319 17.776L30.4181 14.2046Z" fill="#190A28"/>
<path d="M13.6051 25.9405L22.1342 19.4051L23.9776 21.8735L32.109 15.7921" stroke="#190A28" stroke-width="1.15625" stroke-linecap="round" stroke-linejoin="round"/>
</svg>
