<svg width="57" height="56" viewBox="0 0 57 56" fill="none" xmlns="http://www.w3.org/2000/svg">
<circle cx="28.5" cy="28" r="26" fill="#EBF3FE"/>
<path d="M35.3175 10.8088C35.1988 10.6911 35.0383 10.625 34.8711 10.625H17.3532C17.0032 10.625 16.7195 10.9087 16.7195 11.2587V42.2179C16.7195 42.5679 17.0032 42.8516 17.3532 42.8516H41.4174C41.7674 42.8516 42.0511 42.5679 42.0511 42.2179V17.7538C42.0511 17.5849 41.9837 17.4229 41.8637 17.3039L35.3175 10.8088Z" fill="white" stroke="#190A28" stroke-width="1.14062" stroke-miterlimit="10" stroke-linecap="round" stroke-linejoin="round"/>
<path d="M35.7658 17.4898C35.4158 17.4898 35.1321 17.2061 35.1321 16.8562V10.625L42.051 17.4898H35.7658Z" fill="#0074E8" stroke="#190A28" stroke-width="1.14062" stroke-miterlimit="10" stroke-linecap="round" stroke-linejoin="round"/>
<path d="M17.4713 43.6998L29.7248 27.1412L24.9806 24.4695L14.6772 41.8208C14.0078 42.9365 14.8227 44.3751 16.1034 44.3751C16.6564 44.3751 17.1803 44.1109 17.4713 43.6998Z" fill="white" stroke="#190A28" stroke-width="1.14062" stroke-miterlimit="10" stroke-linecap="round" stroke-linejoin="round"/>
<path d="M22.4484 29.4899L25.9701 31.8093" stroke="#190A28" stroke-width="1.14062" stroke-miterlimit="10" stroke-linecap="round" stroke-linejoin="round"/>
<path d="M21.2788 30.9148L25.0682 33.4534" stroke="#190A28" stroke-width="1.14062" stroke-miterlimit="10" stroke-linecap="round" stroke-linejoin="round"/>
<path d="M26.2611 25.174L26.6104 21.3866L32.6934 17.9222L31.9658 24.851L29.0261 26.73L26.2611 25.174Z" fill="#0074E8" stroke="#190A28" stroke-width="1.14062" stroke-miterlimit="10" stroke-linecap="round" stroke-linejoin="round"/>
<ellipse cx="1.02211" cy="1.02521" rx="1.02211" ry="1.02521" transform="matrix(0.823296 0.567614 -0.560936 0.82786 29.316 21.0706)" fill="#190A28"/>
<path d="M29.5819 22.4995L32.5563 18.1112" stroke="#190A28" stroke-width="1.14062" stroke-linecap="round"/>
</svg>
