<svg width="57" height="56" viewBox="0 0 57 56" fill="none" xmlns="http://www.w3.org/2000/svg">
<circle cx="28.5" cy="28" r="26" fill="#EBF3FE"/>
<path d="M16.9346 18.6673H14.9375V36.5078H26.8667C26.8667 36.5078 28.3579 38.5581 30.062 36.5078H41.512V18.2412L16.9346 18.6673Z" fill="#0074E8" stroke="#190A28" stroke-miterlimit="10" stroke-linecap="round" stroke-linejoin="round"/>
<path d="M16.9344 35.203C16.9344 34.5107 16.9344 16.75 16.9344 16.75H26.9731C26.9731 16.75 28.3577 16.8565 28.3577 18.3477V36.4811C28.3577 36.4811 28.4642 35.1764 26.8666 35.1764H16.9344V35.203Z" fill="white" stroke="#190A28" stroke-miterlimit="10" stroke-linecap="round" stroke-linejoin="round"/>
<path d="M39.7813 35.203C39.7813 34.5107 39.7813 16.75 39.7813 16.75H29.7427C29.7427 16.75 28.358 16.8565 28.358 18.3477V36.4811C28.358 36.4811 28.2515 35.1764 29.8492 35.1764H39.7813V35.203Z" fill="white" stroke="#190A28" stroke-miterlimit="10" stroke-linecap="round" stroke-linejoin="round"/>
<path d="M31.5065 43.9999L44.0433 33.6651L40.9222 30.7153L29.7265 42.0288C29.0014 42.7549 29.3506 44.0114 30.3307 44.2557C30.7539 44.3612 31.2053 44.259 31.5065 43.9999Z" fill="white" stroke="#190A28" stroke-miterlimit="10" stroke-linecap="round" stroke-linejoin="round"/>
<path d="M38.0261 34.0742L40.2789 36.5212" stroke="#190A28" stroke-miterlimit="10" stroke-linecap="round" stroke-linejoin="round"/>
<path d="M36.8591 34.9418L39.2749 37.6075" stroke="#190A28" stroke-miterlimit="10" stroke-linecap="round" stroke-linejoin="round"/>
<path d="M41.7673 31.4986L42.7571 28.6667L48.0735 27.1759L46.1948 32.3398L43.5865 33.217L41.7673 31.4986Z" fill="#0074E8" stroke="#190A28" stroke-miterlimit="10" stroke-linecap="round" stroke-linejoin="round"/>
<ellipse cx="0.806173" cy="0.808621" rx="0.806173" ry="0.808621" transform="matrix(0.661554 0.749899 -0.744524 0.667597 44.8877 28.941)" fill="#190A28"/>
<path d="M44.8186 30.0851L47.9321 27.2941" stroke="#190A28" stroke-linecap="round"/>
</svg>
