<svg width="57" height="56" viewBox="0 0 57 56" fill="none" xmlns="http://www.w3.org/2000/svg">
<circle cx="28.5" cy="28" r="26" fill="#EBF3FE"/>
<path d="M27.6392 35.4991H13.1111C12.4975 35.4991 12 35.9966 12 36.6102V41.7632C12 42.3768 12.4975 42.8743 13.1111 42.8743H40.5867C40.8935 42.8743 41.1423 42.6256 41.1423 42.3187V17.8662C41.1423 17.2525 40.6448 16.755 40.0311 16.755H20.4607V14.9456C20.4607 14.3319 19.9632 13.8345 19.3495 13.8345H15.4613C14.8476 13.8345 14.3502 14.3319 14.3502 14.9456V28.8678C14.3502 29.4814 14.8476 29.9789 15.4613 29.9789H19.3495C19.9632 29.9789 20.4607 29.4814 20.4607 28.8678V25.9138C20.4607 25.6069 20.7094 25.3582 21.0162 25.3582H27.6392C28.8665 25.3582 29.8614 26.3531 29.8614 27.5804V33.2769C29.8614 34.5042 28.8665 35.4991 27.6392 35.4991Z" fill="white" stroke="#190A28" stroke-linecap="round"/>
<path d="M14.7314 14.843C14.7314 14.2294 15.2289 13.7319 15.8426 13.7319H19.0845C19.6982 13.7319 20.1956 14.2294 20.1956 14.843V16.7549H14.7314V14.843Z" fill="#0074E8" stroke="#190A28"/>
<rect x="33.6736" y="11" width="2.18567" height="3.54159" fill="#0074E8" stroke="#190A28"/>
<path d="M32.9456 14.5416H36.5883" stroke="#190A28" stroke-linecap="round"/>
<path d="M32.9456 11H36.5883" stroke="#190A28" stroke-linecap="round"/>
<path d="M32.9452 11.4427L21.1062 16.3124" stroke="#190A28" stroke-linecap="round" stroke-linejoin="round"/>
<path d="M34.7665 14.9843V16.3124" stroke="#190A28" stroke-linecap="round" stroke-linejoin="round"/>
<path d="M25.2051 35.4991H13.1111C12.4975 35.4991 12 35.9966 12 36.6103V42.3188C12 42.6256 12.2487 42.8743 12.5556 42.8743H25.2051V35.4991Z" fill="white" stroke="#190A28" stroke-linecap="round"/>
<ellipse cx="16.4023" cy="38.0046" rx="0.758913" ry="0.737832" fill="#190A28"/>
<ellipse cx="19.4373" cy="38.0046" rx="0.758913" ry="0.737832" fill="#190A28"/>
<path d="M17.6405 30.0043V33.6189" stroke="#190A28" stroke-linecap="round"/>
<path d="M17.0082 32.6923H18.3742" stroke="#190A28" stroke-linecap="round" stroke-linejoin="round"/>
<path d="M32.829 39.7554H37.5293" stroke="#190A28" stroke-linecap="round"/>
<path d="M25.1608 35.4991V42.4134" stroke="#190A28" stroke-linecap="round"/>
<ellipse cx="35.5014" cy="23.5051" rx="2.82022" ry="2.7657" fill="#0074E8" stroke="#190A28"/>
<path d="M41.1431 21.6248H43.3196C43.6264 21.6248 43.8752 21.8735 43.8752 22.1803V25.4962C43.8752 25.803 43.6264 26.0517 43.3196 26.0517H41.1431V21.6248Z" fill="white" stroke="#190A28"/>
<path d="M36.4131 23.3956H37.8526" stroke="#190A28" stroke-linecap="round"/>
</svg>
