<svg width="57" height="56" viewBox="0 0 57 56" fill="none" xmlns="http://www.w3.org/2000/svg">
<circle cx="28.5" cy="28" r="26" fill="#EBF3FE"/>
<path d="M41.5273 33.1249L45.3174 33.1649L45.4371 29.8882C45.4571 29.169 44.8985 28.5696 44.1804 28.5696H41.7068L39.0195 23.7134C38.9175 23.5292 38.7236 23.4149 38.5131 23.4149H34.7616V28.5696H20.7016V33.1249H22.4969" fill="white"/>
<path d="M41.5273 33.1249L45.3174 33.1649L45.4371 29.8882C45.4571 29.169 44.8985 28.5696 44.1804 28.5696H41.7068L39.0195 23.7134C38.9175 23.5292 38.7236 23.4149 38.5131 23.4149H34.7616V28.5696H20.7016V33.1249H22.4969" stroke="#190A28" stroke-miterlimit="10" stroke-linecap="round" stroke-linejoin="round"/>
<path d="M27.8429 33.1251H36.1812" stroke="#190A28" stroke-miterlimit="10" stroke-linecap="round" stroke-linejoin="round"/>
<path d="M34.5273 18.5H21.2204C20.9008 18.5 20.6417 18.7591 20.6417 19.0787V32.987H35.106V19.0787C35.106 18.7591 34.8469 18.5 34.5273 18.5Z" fill="white" stroke="#190A28" stroke-miterlimit="10" stroke-linecap="round" stroke-linejoin="round"/>
<ellipse cx="25.4633" cy="33.1659" rx="3.16512" ry="3.16406" fill="#0074E8" stroke="#190A28"/>
<ellipse cx="25.463" cy="33.1715" rx="1.25232" ry="1.25429" fill="white" stroke="#190A28"/>
<ellipse cx="39.2389" cy="33.1659" rx="3.16512" ry="3.16406" fill="#0074E8" stroke="#190A28"/>
<ellipse cx="39.2386" cy="33.1715" rx="1.25232" ry="1.25429" fill="white" stroke="#190A28"/>
<rect x="11.6875" y="29.8827" width="6.88776" height="6.89859" rx="0.0578704" fill="white" stroke="#190A28"/>
<path d="M14.1882 33.6171C14.1498 33.6428 14.0982 33.6153 14.0982 33.569V29.596C14.0982 29.564 14.1241 29.5381 14.1561 29.5381H16.1067C16.1386 29.5381 16.1645 29.564 16.1645 29.596V33.569C16.1645 33.6153 16.113 33.6428 16.0745 33.6171L15.1635 33.0088C15.1441 32.9959 15.1187 32.9959 15.0992 33.0088L14.1882 33.6171Z" fill="#0074E8" stroke="#190A28"/>
<path d="M16.2654 21.6327H18.0015" stroke="#190A28" stroke-linecap="round"/>
<path d="M13.3718 23.3688H18.0015" stroke="#190A28" stroke-linecap="round"/>
<path d="M14.5293 25.1049H18.0015" stroke="#190A28" stroke-linecap="round"/>
</svg>
