<svg width="57" height="56" viewBox="0 0 57 56" fill="none" xmlns="http://www.w3.org/2000/svg">
<circle cx="28.5" cy="28" r="26" fill="#EBF3FE"/>
<rect x="12.6875" y="20.125" width="26.9725" height="20.25" rx="1.11111" fill="white" stroke="#190A28"/>
<path d="M12.6875 36.1563H39.66V39.2639C39.66 39.8776 39.1626 40.375 38.5489 40.375H13.7986C13.185 40.375 12.6875 39.8776 12.6875 39.2639V36.1563Z" fill="#0074E8" stroke="#190A28"/>
<path d="M24.488 40.3751H27.8596L28.4215 43.7501H23.9261L24.488 40.3751Z" stroke="#190A28"/>
<path d="M22.8022 43.75H29.5454" stroke="#190A28" stroke-linecap="round"/>
<ellipse cx="7.60318" cy="7.64525" rx="7.60318" ry="7.64525" transform="matrix(-1 0 0 1 46.4374 13.375)" fill="white" stroke="#190A28"/>
<mask id="mask0_11703_406211" style="mask-type:alpha" maskUnits="userSpaceOnUse" x="30" y="12" width="17" height="18">
<ellipse cx="7.60318" cy="7.64525" rx="7.60318" ry="7.64525" transform="matrix(-1 0 0 1 46.4374 13.375)" fill="#D9D9D9" stroke="#4D3951"/>
</mask>
<g mask="url(#mask0_11703_406211)">
<path d="M40.6316 16.9185C40.6316 16.9186 40.6316 16.9186 40.6315 16.9186C39.3056 16.4455 37.7711 16.7359 36.7099 17.8031C35.615 18.904 35.3372 20.5112 35.873 21.872C35.8877 21.9094 35.8794 21.9522 35.8511 21.9807L28.8506 29.0198C28.2888 29.5848 28.2888 30.4944 28.8506 31.0592C29.4125 31.6242 30.3171 31.6242 30.8788 31.0592L37.8787 24.0205C37.9073 23.9918 37.9505 23.9834 37.9881 23.9983C39.3413 24.5366 40.9393 24.257 42.0339 23.1564C43.0553 22.1294 43.3613 20.6612 42.963 19.3635C42.9415 19.2933 42.8533 19.2733 42.8015 19.3253L40.9346 21.2026C40.909 21.2283 40.8714 21.2381 40.8365 21.2281L39.1715 20.7497C39.1385 20.7402 39.1126 20.7143 39.1032 20.6812L38.6272 19.006C38.6174 18.9714 38.627 18.9341 38.6524 18.9086L40.6315 16.9185C40.6315 16.9185 40.6316 16.9185 40.6316 16.9185V16.9185Z" fill="#0074E8" stroke="#190A28"/>
</g>
<path d="M25.1081 30.0521L24.5318 25.4417C24.515 25.3068 24.6202 25.1876 24.7562 25.1876H26.7752C26.9112 25.1876 27.0164 25.3068 26.9996 25.4417L26.4233 30.0521C26.4091 30.1652 26.313 30.2501 26.199 30.2501H25.3325C25.2185 30.2501 25.1223 30.1652 25.1081 30.0521Z" fill="#190A28"/>
<path d="M26.1096 31.9376C26.1096 32.1273 25.9554 32.2813 25.7659 32.2813C25.5763 32.2813 25.4221 32.1273 25.4221 31.9376C25.4221 31.7479 25.5763 31.5938 25.7659 31.5938C25.9554 31.5938 26.1096 31.7479 26.1096 31.9376Z" fill="#190A28" stroke="#190A28"/>
</svg>
