<svg width="57" height="56" viewBox="0 0 57 56" fill="none" xmlns="http://www.w3.org/2000/svg">
<circle cx="28.5" cy="28" r="26" fill="#EBF3FE"/>
<rect width="6.157" height="4.27922" rx="2.13961" transform="matrix(0.403402 -0.915023 -0.919157 -0.393891 23.8136 19.9232)" fill="white" stroke="#190A28"/>
<rect width="6.19521" height="4.25301" rx="2.12651" transform="matrix(0.774812 -0.632191 -0.642926 -0.765929 37.7996 34.9604)" fill="white" stroke="#190A28"/>
<path d="M39.5156 41.84L27.9442 30.8704L34.62 24.2886L40.9521 36.4072C41.6963 37.8315 41.4923 39.5663 40.4379 40.7791L39.5156 41.84Z" fill="#0074E8" stroke="#190A28"/>
<path d="M12.9239 16.2433L24.5236 27.1837L30.9149 20.3329L18.2837 14.5622C16.8543 13.9091 15.1738 14.1752 14.0181 15.2376L12.9239 16.2433Z" fill="#0074E8" stroke="#190A28"/>
<path d="M21.2685 30.8703L16.2814 29.6411C16.0617 29.5869 15.8297 29.6507 15.6686 29.8096L13.4833 31.9641C13.1591 32.2837 13.2547 32.8288 13.6682 33.0191L19.4883 35.6969L21.7644 41.307C21.9459 41.7544 22.5341 41.8555 22.8546 41.4944L25.067 39.0016C25.1978 38.8541 25.2548 38.6553 25.222 38.4609L24.3839 33.503L40.5072 20.497C42.3716 18.993 42.5577 16.219 40.911 14.4795C39.2209 12.6942 36.3515 12.7845 34.777 14.6724L21.2685 30.8703Z" fill="white" stroke="#190A28"/>
<path d="M15.9279 37.952L12.8125 41.4135" stroke="#190A28" stroke-linecap="round"/>
<path d="M16.7931 41.4135L13.6777 44.875" stroke="#190A28" stroke-linecap="round"/>
</svg>
