<svg width="57" height="56" viewBox="0 0 57 56" fill="none" xmlns="http://www.w3.org/2000/svg">
<circle cx="28.5" cy="28" r="26" fill="#EBF3FE"/>
<rect x="11.6875" y="17.7404" width="19.5395" height="24.9028" rx="2.56944" fill="white" stroke="#190A28"/>
<path d="M11.6875 23.9661H30.3388" stroke="#190A28" stroke-linecap="round" stroke-linejoin="round"/>
<path d="M11.6875 36.4171H30.3388" stroke="#190A28" stroke-linecap="round" stroke-linejoin="round"/>
<rect x="16.1284" y="15.0721" width="10.6579" height="2.66816" stroke="#190A28"/>
<path d="M15.2401 14.9437C15.2401 15.0146 15.2976 15.0721 15.3685 15.0721H27.5458C27.6167 15.0721 27.6743 15.0146 27.6743 14.9437V11.9099C27.6743 11.2004 27.0991 10.6252 26.3895 10.6252H16.5248C15.8152 10.6252 15.2401 11.2004 15.2401 11.9099V14.9437Z" fill="#0074E8" stroke="#190A28"/>
<path fill-rule="evenodd" clip-rule="evenodd" d="M20.7012 26.6344C20.4647 26.6344 20.273 26.8261 20.273 27.0626V28.9632C20.273 28.9868 20.2538 29.006 20.2302 29.006H18.3329C18.0964 29.006 17.9047 29.1977 17.9047 29.4342V30.9495C17.9047 31.186 18.0964 31.3777 18.3329 31.3777H20.2302C20.2538 31.3777 20.273 31.3969 20.273 31.4205V33.3213C20.273 33.5578 20.4647 33.7495 20.7012 33.7495H22.2132C22.4497 33.7495 22.6414 33.5578 22.6414 33.3213V31.4205C22.6414 31.3969 22.6606 31.3777 22.6842 31.3777H24.5817C24.8182 31.3777 25.0099 31.186 25.0099 30.9495V29.4342C25.0099 29.1977 24.8182 29.006 24.5817 29.006H22.6842C22.6606 29.006 22.6414 28.9868 22.6414 28.9632V27.0626C22.6414 26.8261 22.4497 26.6344 22.2132 26.6344H20.7012Z" fill="white"/>
<path d="M20.773 27.0626C20.773 27.1023 20.7409 27.1344 20.7012 27.1344V26.1344C20.1886 26.1344 19.773 26.55 19.773 27.0626H20.773ZM20.773 28.9632V27.0626H19.773V28.9632H20.773ZM18.3329 29.506H20.2302V28.506H18.3329V29.506ZM18.4047 29.4342C18.4047 29.4739 18.3725 29.506 18.3329 29.506V28.506C17.8203 28.506 17.4047 28.9216 17.4047 29.4342H18.4047ZM18.4047 30.9495V29.4342H17.4047V30.9495H18.4047ZM18.3329 30.8777C18.3725 30.8777 18.4047 30.9098 18.4047 30.9495H17.4047C17.4047 31.4621 17.8202 31.8777 18.3329 31.8777V30.8777ZM20.2302 30.8777H18.3329V31.8777H20.2302V30.8777ZM20.773 33.3213V31.4205H19.773V33.3213H20.773ZM20.7012 33.2495C20.7409 33.2495 20.773 33.2816 20.773 33.3213H19.773C19.773 33.8339 20.1886 34.2495 20.7012 34.2495V33.2495ZM22.2132 33.2495H20.7012V34.2495H22.2132V33.2495ZM22.1414 33.3213C22.1414 33.2816 22.1735 33.2495 22.2132 33.2495V34.2495C22.7258 34.2495 23.1414 33.8339 23.1414 33.3213H22.1414ZM22.1414 31.4205V33.3213H23.1414V31.4205H22.1414ZM24.5817 30.8777H22.6842V31.8777H24.5817V30.8777ZM24.5099 30.9495C24.5099 30.9098 24.5421 30.8777 24.5817 30.8777V31.8777C25.0943 31.8777 25.5099 31.4621 25.5099 30.9495H24.5099ZM24.5099 29.4342V30.9495H25.5099V29.4342H24.5099ZM24.5817 29.506C24.5421 29.506 24.5099 29.4739 24.5099 29.4342H25.5099C25.5099 28.9216 25.0943 28.506 24.5817 28.506V29.506ZM22.6842 29.506H24.5817V28.506H22.6842V29.506ZM22.1414 27.0626V28.9632H23.1414V27.0626H22.1414ZM22.2132 27.1344C22.1735 27.1344 22.1414 27.1023 22.1414 27.0626H23.1414C23.1414 26.55 22.7258 26.1344 22.2132 26.1344V27.1344ZM20.7012 27.1344H22.2132V26.1344H20.7012V27.1344ZM22.6842 28.506C22.9367 28.506 23.1414 28.7107 23.1414 28.9632H22.1414C22.1414 29.263 22.3844 29.506 22.6842 29.506V28.506ZM23.1414 31.4205C23.1414 31.673 22.9367 31.8777 22.6842 31.8777V30.8777C22.3844 30.8777 22.1414 31.1207 22.1414 31.4205H23.1414ZM20.2302 31.8777C19.9777 31.8777 19.773 31.673 19.773 31.4205H20.773C20.773 31.1207 20.53 30.8777 20.2302 30.8777V31.8777ZM19.773 28.9632C19.773 28.7107 19.9777 28.506 20.2302 28.506V29.506C20.53 29.506 20.773 29.263 20.773 28.9632H19.773Z" fill="#190A28"/>
<rect width="5.93399" height="13.841" rx="2.96699" transform="matrix(-0.803673 0.595072 -0.596024 -0.802966 43.6612 37.701)" fill="#0074E8" stroke="#190A28"/>
<path d="M39.5365 32.1444L34.7675 35.6756L32.4111 32.501C31.4345 31.1853 31.7103 29.3282 33.0272 28.3531C34.3441 27.378 36.2035 27.6541 37.1801 28.9699L39.5365 32.1444Z" fill="white" stroke="#190A28"/>
<path d="M36.5325 31.4161L35.7805 30.4031C35.5449 30.0857 35.0965 30.0191 34.7788 30.2543L34.1617 30.7112" stroke="#190A28" stroke-linecap="round" stroke-linejoin="round"/>
<rect x="41.5264" y="38.4458" width="5.92924" height="13.852" rx="2.96462" transform="rotate(90 41.5264 38.4458)" fill="#0074E8" stroke="#190A28"/>
<path d="M34.6005 38.4457V44.3749H30.6391C29.0018 44.3749 27.6745 43.0476 27.6745 41.4103C27.6745 39.773 29.0018 38.4457 30.6391 38.4457H34.6005Z" fill="white" stroke="#190A28"/>
<path d="M32.2258 40.4222H30.9625C30.5673 40.4222 30.2469 40.7426 30.2469 41.1378V41.9046" stroke="#190A28" stroke-linecap="round" stroke-linejoin="round"/>
</svg>
