<svg width="57" height="56" viewBox="0 0 57 56" fill="none" xmlns="http://www.w3.org/2000/svg">
<circle cx="28.5" cy="28" r="26" fill="#EBF3FE"/>
<path d="M29.0001 14.5V40.2143" stroke="#190A28"/>
<path d="M18.1519 14.5H39.8483" stroke="#190A28" stroke-linecap="round"/>
<path d="M33.9356 24.7485L39.7339 14.6981C39.7847 14.6101 39.9117 14.6101 39.9625 14.6981L45.7608 24.7485C45.8116 24.8365 45.7481 24.9464 45.6465 24.9464H34.0499C33.9483 24.9464 33.8848 24.8365 33.9356 24.7485Z" fill="white" stroke="#190A28"/>
<path d="M39.8483 31.3749C43.1353 31.3749 45.8077 28.568 45.8738 25.0788C45.8752 25.0059 45.816 24.9464 45.7431 24.9464H33.9534C33.8806 24.9464 33.8214 25.0059 33.8228 25.0788C33.8888 28.568 36.5613 31.3749 39.8483 31.3749Z" fill="#0074E8" stroke="#190A28"/>
<path d="M12.2392 24.7485L18.0375 14.6981C18.0883 14.6101 18.2153 14.6101 18.2661 14.6981L24.0644 24.7485C24.1152 24.8365 24.0517 24.9464 23.9501 24.9464H12.3534C12.2519 24.9464 12.1884 24.8365 12.2392 24.7485Z" fill="white" stroke="#190A28"/>
<path d="M18.1518 31.3749C21.4388 31.3749 24.1112 28.568 24.1773 25.0788C24.1787 25.0059 24.1195 24.9464 24.0466 24.9464H12.2569C12.1841 24.9464 12.1249 25.0059 12.1263 25.0788C12.1923 28.568 14.8648 31.3749 18.1518 31.3749Z" fill="#0074E8" stroke="#190A28"/>
<path d="M14.9373 26.9553C15.3391 27.7589 16.5445 29.366 18.1516 29.366" stroke="#190A28" stroke-linecap="round"/>
<path d="M36.6338 26.9553C37.0356 27.7589 38.2409 29.366 39.8481 29.366" stroke="#190A28" stroke-linecap="round"/>
<path d="M24.1785 41.8213C24.1785 40.4899 25.2578 39.4106 26.5892 39.4106H31.4106C32.742 39.4106 33.8213 40.4899 33.8213 41.8213H24.1785Z" fill="white" stroke="#190A28"/>
</svg>
