<svg width="57" height="56" viewBox="0 0 57 56" fill="none" xmlns="http://www.w3.org/2000/svg">
<circle cx="28.5" cy="28" r="26" fill="#EBF3FE"/>
<rect x="13.8255" y="13.375" width="4.27603" height="10.7143" rx="0.634921" fill="#0074E8" stroke="#190A28"/>
<path fill-rule="evenodd" clip-rule="evenodd" d="M40.9848 43.375C41.3354 43.375 41.6197 43.0907 41.6197 42.7401V25.1598C41.6197 24.9583 41.524 24.7686 41.3618 24.649L26.4757 13.664C26.2446 13.4935 25.9278 13.4993 25.7031 13.6783L11.9269 24.6486C11.7756 24.7691 11.6875 24.9519 11.6875 25.1453V42.7401C11.6875 43.0907 11.9718 43.375 12.3224 43.375H40.9848Z" fill="white" stroke="#190A28" stroke-miterlimit="10" stroke-linecap="round" stroke-linejoin="round"/>
<path d="M22.9374 32.6805C22.9374 32.3737 23.1862 32.1249 23.493 32.1249H29.8819C30.1887 32.1249 30.4374 32.3737 30.4374 32.6805V43.3749H22.9374V32.6805Z" stroke="#190A28"/>
<ellipse cx="8.45658" cy="8.49472" rx="8.45658" ry="8.49472" transform="matrix(-1 0 0 1 45.4375 13.375)" fill="white" stroke="#190A28"/>
<path d="M41.5941 23.1308C41.5597 23.0819 41.5081 23.0331 41.4566 23.0006L41.1301 22.789C41.0785 22.7564 41.0442 22.7239 41.0098 22.675C40.752 22.4472 40.5974 22.1379 40.5974 21.7799C40.5974 21.5357 40.6833 21.3079 40.8208 21.1125C40.9067 20.9823 41.0098 20.8684 41.1473 20.787L41.4738 20.5754C41.5081 20.5592 41.5253 20.5266 41.5425 20.5103C41.6972 20.3638 41.7315 20.136 41.6284 19.9569L40.9926 18.899C40.9582 18.8502 40.9239 18.8176 40.8895 18.7851L40.8723 18.7688C40.8551 18.7525 40.8208 18.7362 40.8036 18.7362C40.6661 18.6711 40.5114 18.6549 40.3568 18.72L40.2193 18.7851L39.9959 18.8827C39.6178 19.0455 39.1882 19.0292 38.8274 18.8339C38.7414 18.7851 38.6727 18.7362 38.604 18.6711L38.5868 18.6549C38.5696 18.6386 38.5524 18.6223 38.5524 18.606C38.5009 18.5572 38.4493 18.4921 38.3977 18.4433C38.2946 18.2805 38.2259 18.1015 38.2087 17.9062L38.14 17.5481C38.14 17.4667 38.1056 17.4016 38.0541 17.3365C37.9681 17.2063 37.8135 17.1249 37.6416 17.1249H36.3528C36.095 17.1249 35.8888 17.3202 35.8544 17.5644L35.8201 17.9387C35.8029 18.1991 35.6826 18.427 35.5107 18.606C35.4248 18.7037 35.3217 18.8013 35.2014 18.8664C35.2014 18.8664 35.2014 18.8664 35.1842 18.8664C35.0124 18.9478 34.8405 18.9967 34.6515 19.0129C34.6343 19.0129 34.6171 19.0129 34.6 19.0129C34.4797 19.0129 34.3594 18.9967 34.2563 18.9804C34.1703 18.9641 34.1016 18.9315 34.0157 18.899L33.8782 18.8339L33.6548 18.7362C33.5345 18.6874 33.4142 18.6874 33.3111 18.7037C33.1908 18.7362 33.0877 18.8013 33.019 18.9153L32.3832 19.9732C32.2457 20.1848 32.3144 20.4615 32.5378 20.5917L32.7612 20.7382L32.8643 20.8033C32.9502 20.8521 33.019 20.9172 33.0877 20.9986C33.2939 21.2102 33.4142 21.5032 33.4142 21.7961C33.4142 22.0565 33.3111 22.317 33.1393 22.5286C33.0534 22.6262 32.9674 22.7076 32.8643 22.789L32.7612 22.8541L32.5378 23.0006C32.3316 23.1308 32.2629 23.4075 32.3832 23.619L33.019 24.677C33.0534 24.7421 33.1221 24.7909 33.1908 24.8235C33.3283 24.9049 33.5002 24.9374 33.672 24.856L34.0329 24.6933C34.2219 24.6119 34.4109 24.5793 34.6171 24.5793C34.8234 24.5793 35.0124 24.6444 35.1842 24.7421C35.2186 24.7584 35.253 24.7909 35.2873 24.8072C35.5795 25.0025 35.7857 25.3118 35.8029 25.6861L35.8372 26.0605C35.8544 26.3046 36.0778 26.4999 36.3356 26.4999H37.6244C37.7619 26.4999 37.865 26.4511 37.9681 26.3697C38.0541 26.2883 38.1228 26.1907 38.1228 26.0605L38.1572 25.6861C38.1743 25.3931 38.3118 25.1327 38.5352 24.9211L38.5524 24.9049C38.6211 24.8398 38.6899 24.7909 38.7758 24.7421C38.9477 24.6607 39.1195 24.6119 39.3085 24.5956C39.3257 24.5956 39.3429 24.5956 39.3601 24.5956H39.3773C39.5663 24.5956 39.7553 24.6282 39.9444 24.7095L40.3052 24.8723C40.5114 24.97 40.752 24.9049 40.8895 24.7421C40.9067 24.7258 40.9239 24.7095 40.9411 24.6933L41.5769 23.6353C41.7144 23.4726 41.6972 23.2773 41.5941 23.1308Z" fill="#0074E8" stroke="#190A28" stroke-miterlimit="10" stroke-linecap="round" stroke-linejoin="round"/>
<path d="M38.0974 23.3366C37.7925 23.5652 37.4114 23.6872 36.9998 23.6872C35.9632 23.6872 35.1248 22.8335 35.1248 21.8122C35.1248 20.7908 35.9785 19.9371 36.9998 19.9371C37.5181 19.9371 37.9907 20.1506 38.3261 20.4859C38.6615 20.8213 38.8749 21.3091 38.8749 21.8122C38.8596 22.4524 38.5547 22.986 38.0974 23.3366Z" fill="white" stroke="#190A28" stroke-miterlimit="10" stroke-linecap="round" stroke-linejoin="round"/>
</svg>
