<svg width="57" height="56" viewBox="0 0 57 56" fill="none" xmlns="http://www.w3.org/2000/svg">
<circle cx="28.5" cy="28" r="26" fill="#EBF3FE"/>
<path d="M28.763 11.2703C28.6696 11.1772 28.5432 11.125 28.4114 11.125H13.4982C13.223 11.125 13 11.3481 13 11.6232V36.0468C13 37.4448 14.1333 38.5781 15.5312 38.5781H33.9875C34.2626 38.5781 34.4857 38.355 34.4857 38.0799V17.1799C34.4857 17.0474 34.433 16.9204 34.3392 16.827L28.763 11.2703Z" fill="white" stroke="#190A28" stroke-miterlimit="10" stroke-linecap="round" stroke-linejoin="round"/>
<path d="M29.1156 16.973C28.8405 16.973 28.6174 16.7499 28.6174 16.4748V11.125L34.4859 16.973H29.1156Z" fill="#0074E8" stroke="#190A28" stroke-miterlimit="10" stroke-linecap="round" stroke-linejoin="round"/>
<path d="M16.581 22.1619H30.9048" stroke="#190A28" stroke-linecap="round"/>
<path d="M16.581 26.0817H30.9048" stroke="#190A28" stroke-linecap="round"/>
<path d="M16.581 30.0019H22.7616" stroke="#190A28" stroke-linecap="round"/>
<ellipse cx="35.554" cy="36.505" rx="8.23001" ry="8.37025" fill="#0074E8" stroke="#190A28"/>
<path d="M38.2977 33.5916H36.4728C36.913 33.7758 37.2092 34.0928 37.3612 34.5423H38.2977V35.3494H37.4573C37.4253 35.8137 37.2692 36.2006 36.9891 36.5102C36.7169 36.8197 36.3127 37.0629 35.7765 37.2398L37.9495 40.2248H36.1607L34.3118 37.472H32.811V36.5544H34.2637C34.76 36.5544 35.1362 36.4623 35.3923 36.278C35.6484 36.0938 35.7965 35.7842 35.8365 35.3494H32.811V34.5423H35.7765C35.6964 34.2402 35.5244 34.0227 35.2602 33.8901C34.9961 33.75 34.6359 33.68 34.1797 33.68H32.811V32.7845H38.2977V33.5916Z" fill="white"/>
</svg>
