<svg width="57" height="56" viewBox="0 0 57 56" fill="none" xmlns="http://www.w3.org/2000/svg">
<circle cx="28.5" cy="28" r="26" fill="#EBF3FE"/>
<path d="M34.9272 12.5819C34.8172 12.4759 34.6704 12.4167 34.5176 12.4167H16.5903C16.2643 12.4167 16 12.681 16 13.007V43.7014C16 44.0274 16.2643 44.2917 16.5903 44.2917H41.2133C41.5393 44.2917 41.8036 44.0274 41.8036 43.7014V19.4576C41.8036 19.2972 41.7383 19.1438 41.6228 19.0325L34.9272 12.5819Z" fill="white" stroke="#190A28" stroke-miterlimit="10" stroke-linecap="round" stroke-linejoin="round"/>
<path d="M35.3458 19.2066C35.0198 19.2066 34.7555 18.9424 34.7555 18.6163V12.4167L41.8033 19.2066H35.3458Z" fill="#0074E8" stroke="#190A28" stroke-miterlimit="10" stroke-linecap="round" stroke-linejoin="round"/>
<path d="M22.27 21.521H34.7714" stroke="#190A28"/>
<path d="M34.7714 27.5904C34.7714 24.2384 31.9729 21.521 28.5207 21.521C25.0685 21.521 22.27 24.2384 22.27 27.5904" stroke="#190A28"/>
<path d="M26.9579 38.9252C26.9579 39.7882 27.6575 40.4879 28.5206 40.4879C29.3836 40.4879 30.0832 39.7882 30.0832 38.9252V31.3837H26.9579V38.9252Z" fill="white" stroke="#190A28"/>
<rect x="27.7383" y="20.7622" width="1.56267" height="1.51786" fill="#0074E8"/>
<rect x="21.4882" y="26.8317" width="1.56267" height="1.51786" fill="#0074E8"/>
<rect x="33.9896" y="26.8317" width="1.56267" height="1.51786" fill="#0074E8"/>
<ellipse cx="22.2696" cy="21.5211" rx="0.781336" ry="0.758929" fill="#0074E8"/>
<ellipse cx="34.771" cy="21.5211" rx="0.781336" ry="0.758929" fill="#0074E8"/>
<path fill-rule="evenodd" clip-rule="evenodd" d="M26.176 28.2591C26.6488 27.6646 27.6888 25.9701 28.067 23.9486H28.3822V31.2319H26.8063C26.8063 30.8355 26.6803 29.6861 26.176 28.2591ZM30.8638 28.2592C30.391 27.6647 29.351 25.9702 28.9728 23.9487H28.6577V31.232H30.2335C30.2335 30.8356 30.3595 29.6862 30.8638 28.2592Z" fill="#0074E8"/>
<ellipse cx="28.5196" cy="27.5904" rx="0.781336" ry="0.758929" fill="white"/>
<rect x="26.176" y="30.6251" width="4.55357" height="1.82143" rx="0.236111" fill="white" stroke="#190A28"/>
<path d="M33.1091 34.9315L34.1378 39.1567L34.8551 37.8951L35.6536 38.9267L36.4522 38.2696L35.7145 37.3365L37.1154 36.9948L33.1091 34.9315Z" fill="#0074E8"/>
</svg>
